<svg xmlns="http://www.w3.org/2000/svg" viewBox="0 0 512 512" width="512" height="512">
  <rect width="512" height="512" rx="128" fill="#020617"/>
  <radialGradient id="grad" cx="50%" cy="50%" r="50%">
    <stop offset="0%" stop-color="#10b981" stop-opacity="0.25"/>
    <stop offset="100%" stop-color="#020617" stop-opacity="0"/>
  </radialGradient>
  <rect width="512" height="512" rx="128" fill="url(#grad)"/>
  
  <rect x="32" y="32" width="448" height="448" rx="100" fill="none" stroke="#10b981" stroke-width="12" stroke-opacity="0.4"/>
  
  <!-- Microscope & Science Symbol -->
  <g transform="translate(106, 106) scale(1.17)">
    <path d="M128 32 C128 32 144 64 144 96 L144 128 L112 128 L112 96 C112 64 128 32 128 32 Z" fill="#38bdf8"/>
    <path d="M80 128 L176 128 L192 160 L64 160 Z" fill="#0284c7"/>
    
    <!-- Arm -->
    <path d="M192 160 C224 160 240 184 240 216 L240 240 C240 248 232 256 224 256 L192 256" fill="none" stroke="#10b981" stroke-width="20" stroke-linecap="round"/>
    
    <!-- Base -->
    <path d="M40 240 L216 240 L224 256 L32 256 Z" fill="#059669"/>
    
    <!-- Lens -->
    <circle cx="128" cy="180" r="18" fill="#a855f7"/>
    <circle cx="128" cy="180" r="10" fill="#f0abfc"/>
    
    <!-- Flask with Bubbles -->
    <path d="M96 220 L72 256 L184 256 L160 220 Z" fill="#10b981" opacity="0.9"/>
    <circle cx="128" cy="235" r="5" fill="#ffffff" opacity="0.8"/>
    <circle cx="140" cy="245" r="4" fill="#ffffff" opacity="0.6"/>
    <circle cx="115" cy="242" r="3" fill="#ffffff" opacity="0.7"/>
  </g>
  
  <text x="256" y="440" font-family="sans-serif" font-weight="900" font-size="34" fill="#10b981" text-anchor="middle">مختبر العلوم 3D</text>
</svg>
